<mxfile host="Electron" modified="2023-05-21T18:25:59.724Z" agent="Mozilla/5.0 (Macintosh; Intel Mac OS X 10_15_7) AppleWebKit/537.36 (KHTML, like Gecko) draw.io/21.2.8 Chrome/112.0.5615.165 Electron/24.2.0 Safari/537.36" etag="XjjoywQzILEb3-yH3Owp" version="21.2.8" type="device">
  <diagram name="Страница 1" id="h9KY3-X_dU8ZTj3LkEQP">
    <mxGraphModel dx="671" dy="475" grid="1" gridSize="10" guides="1" tooltips="1" connect="1" arrows="1" fold="1" page="1" pageScale="1" pageWidth="827" pageHeight="1169" math="0" shadow="0">
      <root>
        <mxCell id="0" />
        <mxCell id="1" parent="0" />
        <mxCell id="TrCwPEuN4RtbwWNRDyOu-3" value="" style="shape=table;startSize=0;container=1;collapsible=0;childLayout=tableLayout;" vertex="1" parent="1">
          <mxGeometry x="260" y="230" width="430" height="40" as="geometry" />
        </mxCell>
        <mxCell id="TrCwPEuN4RtbwWNRDyOu-4" value="" style="shape=tableRow;horizontal=0;startSize=0;swimlaneHead=0;swimlaneBody=0;strokeColor=inherit;top=0;left=0;bottom=0;right=0;collapsible=0;dropTarget=0;fillColor=none;points=[[0,0.5],[1,0.5]];portConstraint=eastwest;" vertex="1" parent="TrCwPEuN4RtbwWNRDyOu-3">
          <mxGeometry width="430" height="40" as="geometry" />
        </mxCell>
        <mxCell id="TrCwPEuN4RtbwWNRDyOu-5" value="&lt;b&gt;1&lt;/b&gt;" style="shape=partialRectangle;html=1;whiteSpace=wrap;connectable=0;strokeColor=inherit;overflow=hidden;fillColor=none;top=0;left=0;bottom=0;right=0;pointerEvents=1;fontSize=22;" vertex="1" parent="TrCwPEuN4RtbwWNRDyOu-4">
          <mxGeometry width="49" height="40" as="geometry">
            <mxRectangle width="49" height="40" as="alternateBounds" />
          </mxGeometry>
        </mxCell>
        <mxCell id="TrCwPEuN4RtbwWNRDyOu-6" value="6" style="shape=partialRectangle;html=1;whiteSpace=wrap;connectable=0;strokeColor=inherit;overflow=hidden;fillColor=none;top=0;left=0;bottom=0;right=0;pointerEvents=1;fontSize=22;" vertex="1" parent="TrCwPEuN4RtbwWNRDyOu-4">
          <mxGeometry x="49" width="46" height="40" as="geometry">
            <mxRectangle width="46" height="40" as="alternateBounds" />
          </mxGeometry>
        </mxCell>
        <mxCell id="TrCwPEuN4RtbwWNRDyOu-7" value="3" style="shape=partialRectangle;html=1;whiteSpace=wrap;connectable=0;strokeColor=inherit;overflow=hidden;fillColor=none;top=0;left=0;bottom=0;right=0;pointerEvents=1;fontSize=22;" vertex="1" parent="TrCwPEuN4RtbwWNRDyOu-4">
          <mxGeometry x="95" width="48" height="40" as="geometry">
            <mxRectangle width="48" height="40" as="alternateBounds" />
          </mxGeometry>
        </mxCell>
        <mxCell id="TrCwPEuN4RtbwWNRDyOu-8" value="4" style="shape=partialRectangle;html=1;whiteSpace=wrap;connectable=0;strokeColor=inherit;overflow=hidden;fillColor=none;top=0;left=0;bottom=0;right=0;pointerEvents=1;fontSize=22;" vertex="1" parent="TrCwPEuN4RtbwWNRDyOu-4">
          <mxGeometry x="143" width="49" height="40" as="geometry">
            <mxRectangle width="49" height="40" as="alternateBounds" />
          </mxGeometry>
        </mxCell>
        <mxCell id="TrCwPEuN4RtbwWNRDyOu-9" value="5" style="shape=partialRectangle;html=1;whiteSpace=wrap;connectable=0;strokeColor=inherit;overflow=hidden;fillColor=none;top=0;left=0;bottom=0;right=0;pointerEvents=1;fontSize=22;" vertex="1" parent="TrCwPEuN4RtbwWNRDyOu-4">
          <mxGeometry x="192" width="46" height="40" as="geometry">
            <mxRectangle width="46" height="40" as="alternateBounds" />
          </mxGeometry>
        </mxCell>
        <mxCell id="TrCwPEuN4RtbwWNRDyOu-10" value="2" style="shape=partialRectangle;html=1;whiteSpace=wrap;connectable=0;strokeColor=inherit;overflow=hidden;fillColor=none;top=0;left=0;bottom=0;right=0;pointerEvents=1;fontSize=22;" vertex="1" parent="TrCwPEuN4RtbwWNRDyOu-4">
          <mxGeometry x="238" width="49" height="40" as="geometry">
            <mxRectangle width="49" height="40" as="alternateBounds" />
          </mxGeometry>
        </mxCell>
        <mxCell id="TrCwPEuN4RtbwWNRDyOu-11" value="7" style="shape=partialRectangle;html=1;whiteSpace=wrap;connectable=0;strokeColor=inherit;overflow=hidden;fillColor=none;top=0;left=0;bottom=0;right=0;pointerEvents=1;fontSize=22;" vertex="1" parent="TrCwPEuN4RtbwWNRDyOu-4">
          <mxGeometry x="287" width="48" height="40" as="geometry">
            <mxRectangle width="48" height="40" as="alternateBounds" />
          </mxGeometry>
        </mxCell>
        <mxCell id="TrCwPEuN4RtbwWNRDyOu-12" value="&lt;b&gt;8&lt;/b&gt;" style="shape=partialRectangle;html=1;whiteSpace=wrap;connectable=0;strokeColor=inherit;overflow=hidden;fillColor=none;top=0;left=0;bottom=0;right=0;pointerEvents=1;fontSize=22;" vertex="1" parent="TrCwPEuN4RtbwWNRDyOu-4">
          <mxGeometry x="335" width="46" height="40" as="geometry">
            <mxRectangle width="46" height="40" as="alternateBounds" />
          </mxGeometry>
        </mxCell>
        <mxCell id="TrCwPEuN4RtbwWNRDyOu-13" value="9" style="shape=partialRectangle;html=1;whiteSpace=wrap;connectable=0;strokeColor=inherit;overflow=hidden;fillColor=none;top=0;left=0;bottom=0;right=0;pointerEvents=1;fontSize=22;" vertex="1" parent="TrCwPEuN4RtbwWNRDyOu-4">
          <mxGeometry x="381" width="49" height="40" as="geometry">
            <mxRectangle width="49" height="40" as="alternateBounds" />
          </mxGeometry>
        </mxCell>
        <mxCell id="TrCwPEuN4RtbwWNRDyOu-14" value="" style="shape=table;startSize=0;container=1;collapsible=0;childLayout=tableLayout;" vertex="1" parent="1">
          <mxGeometry x="260" y="330" width="430" height="40" as="geometry" />
        </mxCell>
        <mxCell id="TrCwPEuN4RtbwWNRDyOu-15" value="" style="shape=tableRow;horizontal=0;startSize=0;swimlaneHead=0;swimlaneBody=0;strokeColor=inherit;top=0;left=0;bottom=0;right=0;collapsible=0;dropTarget=0;fillColor=none;points=[[0,0.5],[1,0.5]];portConstraint=eastwest;" vertex="1" parent="TrCwPEuN4RtbwWNRDyOu-14">
          <mxGeometry width="430" height="40" as="geometry" />
        </mxCell>
        <mxCell id="TrCwPEuN4RtbwWNRDyOu-16" value="&lt;b&gt;1&lt;/b&gt;" style="shape=partialRectangle;html=1;whiteSpace=wrap;connectable=0;strokeColor=inherit;overflow=hidden;fillColor=none;top=0;left=0;bottom=0;right=0;pointerEvents=1;fontSize=22;" vertex="1" parent="TrCwPEuN4RtbwWNRDyOu-15">
          <mxGeometry width="49" height="40" as="geometry">
            <mxRectangle width="49" height="40" as="alternateBounds" />
          </mxGeometry>
        </mxCell>
        <mxCell id="TrCwPEuN4RtbwWNRDyOu-17" value="2" style="shape=partialRectangle;html=1;whiteSpace=wrap;connectable=0;strokeColor=inherit;overflow=hidden;fillColor=none;top=0;left=0;bottom=0;right=0;pointerEvents=1;fontSize=22;" vertex="1" parent="TrCwPEuN4RtbwWNRDyOu-15">
          <mxGeometry x="49" width="46" height="40" as="geometry">
            <mxRectangle width="46" height="40" as="alternateBounds" />
          </mxGeometry>
        </mxCell>
        <mxCell id="TrCwPEuN4RtbwWNRDyOu-18" value="5" style="shape=partialRectangle;html=1;whiteSpace=wrap;connectable=0;strokeColor=inherit;overflow=hidden;fillColor=none;top=0;left=0;bottom=0;right=0;pointerEvents=1;fontSize=22;" vertex="1" parent="TrCwPEuN4RtbwWNRDyOu-15">
          <mxGeometry x="95" width="48" height="40" as="geometry">
            <mxRectangle width="48" height="40" as="alternateBounds" />
          </mxGeometry>
        </mxCell>
        <mxCell id="TrCwPEuN4RtbwWNRDyOu-19" value="4" style="shape=partialRectangle;html=1;whiteSpace=wrap;connectable=0;strokeColor=inherit;overflow=hidden;fillColor=none;top=0;left=0;bottom=0;right=0;pointerEvents=1;fontSize=22;" vertex="1" parent="TrCwPEuN4RtbwWNRDyOu-15">
          <mxGeometry x="143" width="49" height="40" as="geometry">
            <mxRectangle width="49" height="40" as="alternateBounds" />
          </mxGeometry>
        </mxCell>
        <mxCell id="TrCwPEuN4RtbwWNRDyOu-20" value="3" style="shape=partialRectangle;html=1;whiteSpace=wrap;connectable=0;strokeColor=inherit;overflow=hidden;fillColor=none;top=0;left=0;bottom=0;right=0;pointerEvents=1;fontSize=22;" vertex="1" parent="TrCwPEuN4RtbwWNRDyOu-15">
          <mxGeometry x="192" width="46" height="40" as="geometry">
            <mxRectangle width="46" height="40" as="alternateBounds" />
          </mxGeometry>
        </mxCell>
        <mxCell id="TrCwPEuN4RtbwWNRDyOu-21" value="6" style="shape=partialRectangle;html=1;whiteSpace=wrap;connectable=0;strokeColor=inherit;overflow=hidden;fillColor=none;top=0;left=0;bottom=0;right=0;pointerEvents=1;fontSize=22;" vertex="1" parent="TrCwPEuN4RtbwWNRDyOu-15">
          <mxGeometry x="238" width="49" height="40" as="geometry">
            <mxRectangle width="49" height="40" as="alternateBounds" />
          </mxGeometry>
        </mxCell>
        <mxCell id="TrCwPEuN4RtbwWNRDyOu-22" value="7" style="shape=partialRectangle;html=1;whiteSpace=wrap;connectable=0;strokeColor=inherit;overflow=hidden;fillColor=none;top=0;left=0;bottom=0;right=0;pointerEvents=1;fontSize=22;" vertex="1" parent="TrCwPEuN4RtbwWNRDyOu-15">
          <mxGeometry x="287" width="48" height="40" as="geometry">
            <mxRectangle width="48" height="40" as="alternateBounds" />
          </mxGeometry>
        </mxCell>
        <mxCell id="TrCwPEuN4RtbwWNRDyOu-23" value="&lt;b&gt;8&lt;/b&gt;" style="shape=partialRectangle;html=1;whiteSpace=wrap;connectable=0;strokeColor=inherit;overflow=hidden;fillColor=none;top=0;left=0;bottom=0;right=0;pointerEvents=1;fontSize=22;" vertex="1" parent="TrCwPEuN4RtbwWNRDyOu-15">
          <mxGeometry x="335" width="46" height="40" as="geometry">
            <mxRectangle width="46" height="40" as="alternateBounds" />
          </mxGeometry>
        </mxCell>
        <mxCell id="TrCwPEuN4RtbwWNRDyOu-24" value="9" style="shape=partialRectangle;html=1;whiteSpace=wrap;connectable=0;strokeColor=inherit;overflow=hidden;fillColor=none;top=0;left=0;bottom=0;right=0;pointerEvents=1;fontSize=22;" vertex="1" parent="TrCwPEuN4RtbwWNRDyOu-15">
          <mxGeometry x="381" width="49" height="40" as="geometry">
            <mxRectangle width="49" height="40" as="alternateBounds" />
          </mxGeometry>
        </mxCell>
        <mxCell id="TrCwPEuN4RtbwWNRDyOu-29" value="" style="endArrow=classic;html=1;rounded=0;" edge="1" parent="1">
          <mxGeometry width="50" height="50" relative="1" as="geometry">
            <mxPoint x="430" y="200" as="sourcePoint" />
            <mxPoint x="430" y="230" as="targetPoint" />
          </mxGeometry>
        </mxCell>
        <mxCell id="TrCwPEuN4RtbwWNRDyOu-31" value="&lt;font style=&quot;font-size: 14px;&quot;&gt;Опорный&lt;/font&gt;" style="text;html=1;strokeColor=none;fillColor=none;align=center;verticalAlign=middle;whiteSpace=wrap;rounded=0;" vertex="1" parent="1">
          <mxGeometry x="386" y="172" width="86" height="30" as="geometry" />
        </mxCell>
        <mxCell id="TrCwPEuN4RtbwWNRDyOu-32" value="" style="endArrow=classic;html=1;rounded=0;exitX=0.198;exitY=1.057;exitDx=0;exitDy=0;exitPerimeter=0;entryX=0.605;entryY=-0.024;entryDx=0;entryDy=0;entryPerimeter=0;" edge="1" parent="1" source="TrCwPEuN4RtbwWNRDyOu-4" target="TrCwPEuN4RtbwWNRDyOu-15">
          <mxGeometry width="50" height="50" relative="1" as="geometry">
            <mxPoint x="440" y="350" as="sourcePoint" />
            <mxPoint x="520" y="326" as="targetPoint" />
          </mxGeometry>
        </mxCell>
        <mxCell id="TrCwPEuN4RtbwWNRDyOu-33" value="" style="endArrow=classic;html=1;rounded=0;exitX=0.284;exitY=1.03;exitDx=0;exitDy=0;exitPerimeter=0;entryX=0.5;entryY=0;entryDx=0;entryDy=0;entryPerimeter=0;" edge="1" parent="1" source="TrCwPEuN4RtbwWNRDyOu-4" target="TrCwPEuN4RtbwWNRDyOu-15">
          <mxGeometry width="50" height="50" relative="1" as="geometry">
            <mxPoint x="355" y="282" as="sourcePoint" />
            <mxPoint x="530" y="336" as="targetPoint" />
          </mxGeometry>
        </mxCell>
        <mxCell id="TrCwPEuN4RtbwWNRDyOu-34" value="" style="endArrow=classic;html=1;rounded=0;exitX=0.502;exitY=1.03;exitDx=0;exitDy=0;exitPerimeter=0;entryX=0.288;entryY=-0.01;entryDx=0;entryDy=0;entryPerimeter=0;" edge="1" parent="1" source="TrCwPEuN4RtbwWNRDyOu-4" target="TrCwPEuN4RtbwWNRDyOu-15">
          <mxGeometry width="50" height="50" relative="1" as="geometry">
            <mxPoint x="392" y="281" as="sourcePoint" />
            <mxPoint x="485" y="340" as="targetPoint" />
          </mxGeometry>
        </mxCell>
        <mxCell id="TrCwPEuN4RtbwWNRDyOu-35" value="" style="endArrow=classic;html=1;rounded=0;exitX=0.609;exitY=1.017;exitDx=0;exitDy=0;exitPerimeter=0;entryX=0.177;entryY=-0.037;entryDx=0;entryDy=0;entryPerimeter=0;" edge="1" parent="1" source="TrCwPEuN4RtbwWNRDyOu-4" target="TrCwPEuN4RtbwWNRDyOu-15">
          <mxGeometry width="50" height="50" relative="1" as="geometry">
            <mxPoint x="486" y="281" as="sourcePoint" />
            <mxPoint x="394" y="340" as="targetPoint" />
          </mxGeometry>
        </mxCell>
      </root>
    </mxGraphModel>
  </diagram>
</mxfile>
